# AST/ASF file generated using VICON BodyLanguage
# -----------------------------------------------
:version 1.10
:name VICON
:units
  mass 1.0
  length 0.45
  angle deg
:documentation
   .ast/.asf automatically generated from VICON data using
   VICON BodyBuilder and BodyLanguage model FoxedUp or BRILLIANT.MOD
:root
   order TX TY TZ RX RY RZ
   axis XYZ
   position 0 0 0  
   orientation 0 0 0 
:bonedata
  begin
     id 1 
     name lhipjoint
     direction 0.621036 -0.695554 0.361275 
     length 2.46325 
     axis 0 0 0  XYZ
  end
  begin
     id 2 
     name lfemur
     direction 0.34202 -0.939693 0  
     length 6.54784  
     axis 0 0 20  XYZ
    dof rx ry rz
    limits (-160.0 20.0)
           (-70.0 70.0)
           (-60.0 70.0)
  end
  begin
     id 3 
     name ltibia
     direction 0.34202 -0.939693 0   
     length 7.84737   
     axis 0 0 20   XYZ
    dof rx
    limits (-10.0 170.0)
  end
  begin
     id 4 
     name lfoot
     direction 0.0790693 -0.217241 0.97291   
     length 2.59747   
     axis -90 7.62852e-016 20   XYZ
    dof rx rz
    limits (-45.0 90.0)
           (-70.0 20.0)
  end
  begin
     id 5 
     name ltoes
     direction 1.53572e-011 -4.21898e-011 1   
     length 1.29919   
     axis -90 7.62852e-016 20   XYZ
    dof rx
    limits (-90.0 20.0)
  end
  begin
     id 6 
     name rhipjoint
     direction -0.602353 -0.708375 0.367935   
     length 2.41867  
     axis 0 0 0  XYZ 
  end
  begin
     id 7 
     name rfemur
     direction -0.34202 -0.939693 0   
     length 6.92065   
     axis 0 0 -20   XYZ
    dof rx ry rz
    limits (-160.0 20.0)
           (-70.0 70.0)
           (-70.0 60.0)
  end
  begin
     id 8 
     name rtibia
     direction -0.34202 -0.939693 0   
     length 7.88883   
     axis 0 0 -20   XYZ
    dof rx
    limits (-10.0 170.0)
 end
 begin
     id 9 
     name rfoot
     direction -0.0768692 -0.211196 0.974416   
     length 2.43714  
     axis -90 -7.62852e-016 -20   XYZ
    dof rx rz
    limits (-45.0 90.0)
           (-20.0 70.0)
  end
  begin
     id 10 
     name rtoes
     direction -1.53575e-011 -4.21933e-011 1   
     length 1.22113   
     axis -90 -7.62852e-016 -20   XYZ
    dof rx
    limits (-90.0 20.0)
  end
  begin
     id 11 
     name lowerback
     direction 0.0197937 0.98943 -0.143655   
     length 2.16931   
     axis 0 0 0   XYZ
    dof rx ry rz
    limits (-20.0 45.0)
           (-30.0 30.0)
           (-30.0 30.0)
  end
  begin
     id 12 
     name upperback
     direction -0.00183968 0.999975 0.00684288   
     length 2.17221   
     axis 0 0 0   XYZ
    dof rx ry rz
    limits (-20.0 45.0)
           (-30.0 30.0)
           (-30.0 30.0)
  end
  begin
     id 13 
     name thorax
     direction -0.00950244 0.997208 0.0740685   
     length 2.22549   
     axis 0 0 0   XYZ
    dof rx ry rz
    limits (-20.0 45.0)
           (-30.0 30.0)
           (-30.0 30.0)
  end
  begin
     id 14 
     name lowerneck
     direction 0.0218238 0.996215 0.0841425   
     length 1.77269   
     axis 0 0 0   XYZ
    dof rx ry rz
    limits (-20.0 45.0)
           (-30.0 30.0)
           (-30.0 30.0)
  end
  begin
     id 15 
     name upperneck
     direction -0.00430652 0.994214 -0.107332   
     length 1.76534   
     axis 0 0 0   XYZ
    dof rx ry rz
    limits (-20.0 45.0)
           (-30.0 30.0)
           (-30.0 30.0)
  end
  begin
     id 16
     name head
     direction -0.00328946 0.998959 -0.0454998  
     length 1.82634  
     axis 0 0 0   XYZ
    dof rx ry rz
    limits (-20.0 45.0)
           (-30.0 30.0)
           (-30.0 30.0)
  end
  begin
     id 17 
     name lclavicle
     direction 0.970962 0.239191 0.00450212  
     length 3.84872  
     axis 0 0 0   XYZ
    dof ry rz
    limits (-20.0 10.0)
           (0.0 20.0)
  end
  begin
     id 18 
     name lhumerus
     direction 1 -4.48966e-011 5.74696e-028   
     length 5.22771   
     axis 180 -30 -90   XYZ
    dof rx ry rz
    limits (-60.0 90.0)
           (-90.0 90.0)
           (-90.0 90.0)
  end
  begin
     id 19
     name lradius
     direction 1 -4.4896e-011 4.25109e-027   
     length 3.45251   
     axis 180 -30 -90   XYZ
    dof rx
    limits (-10.0 170.0)
  end
  begin
     id 20
     name lwrist
     direction 1 -4.48971e-011 1.15382e-027   
     length 1.72626   
     axis -5.52449e-016 90 90   XYZ
    dof ry
    limits (-180.0 0.0)
 end
  begin
     id 21 
     name lhand
     direction 1 -4.49034e-011 2.30765e-027   
     length 0.552119   
     axis -1.47248e-015 90 90   XYZ
    dof rx rz
    limits (-90.0 90.0)
           (-45.0 45.0)
  end
  begin
     id 22 
     name lfingers
     direction 1 -4.48951e-011 4.61529e-027   
     length 0.445133   
     axis -2.94495e-015 90 90   XYZ
    dof rx
    limits (0.0 90.0)
  end
  begin
     id 23
     name lthumb
     direction 0.707107 -6.34991e-011 0.707107   
     length 0.639124   
     axis -90 45 2.85299e-015   XYZ
    dof rx rz
    limits (-45.0 45.0)
           (-45.0 45.0)
  end
  begin
     id 24 
     name rclavicle
     direction -0.97424 0.222511 -0.0366699   
     length 3.73439  
     axis 0 0 0   XYZ 
    dof ry rz
    limits (-10.0 20.0)
           (-20.0 0.0)
  end
  begin
     id 25 
     name rhumerus
     direction -1 -4.48956e-011 -4.97258e-028  
     length 5.2398   
     axis 180 30 90   XYZ
    dof rx ry rz
    limits (-90.0 60.0)
           (-90.0 90.0)
           (-90.0 90.0)
  end
  begin
     id 26 
     name rradius
     direction -1 -4.4897e-011 -1.72611e-027   
     length 3.48042   
     axis 180 30 90   XYZ
    dof rx
    limits (-10.0 170.0)
  end
  begin
     id 27 
     name rwrist
     direction -1 -4.48976e-011 1.15382e-027   
     length 1.74021   
     axis -5.52449e-016 -90 -90   XYZ
    dof ry
    limits (-180.0 0.0)
  end
  begin
     id 28
     name rhand
     direction -1 -4.48963e-011 2.30765e-027   
     length 0.618713   
     axis -1.47248e-015 -90 -90   XYZ
    dof rx rz
    limits (-90.0 90.0)
           (-45.0 45.0)
  end
  begin
     id 29
     name rfingers
     direction -1 -4.4888e-011 4.61529e-027   
     length 0.498823   
     axis -2.94495e-015 -90 -90   XYZ
    dof rx
    limits (0.0 90.0)
  end
  begin
     id 30
     name rthumb
     direction -0.707107 -6.34968e-011 0.707107   
     length 0.716213   
     axis -90 -45 -2.85299e-015   XYZ
    dof rx rz
    limits (-45.0 45.0)
           (-45.0 45.0)
  end
:hierarchy
  begin
    root lhipjoint rhipjoint lowerback
    lhipjoint lfemur
    lfemur ltibia
    ltibia lfoot
    lfoot ltoes
    rhipjoint rfemur
    rfemur rtibia
    rtibia rfoot
    rfoot rtoes
    lowerback upperback
    upperback thorax
    thorax lowerneck lclavicle rclavicle
    lowerneck upperneck
    upperneck head
    lclavicle lhumerus
    lhumerus lradius
    lradius lwrist
    lwrist lhand lthumb
    lhand lfingers
    rclavicle rhumerus
    rhumerus rradius
    rradius rwrist
    rwrist rhand rthumb
    rhand rfingers
  end

#!OML:ASF G:\JayActor3\Patient Classification 1\Patient 1\Session 5\male.ASF
:FULLY-SPECIFIED
:DEGREES
1
root 50.1191 15.9951 -3.33502 162.403 -84.8586 -161.665
lowerback 1.55439 -0.0158695 -0.330028
upperback 2.52923 -0.0468035 -0.629704
thorax 1.71916 -0.0369109 -0.46056
lowerneck -7.27434 -0.824713 2.17264
upperneck 1.02685 -1.4941 4.24858
head 1.57246 -0.664788 0.910573
rclavicle -3.52843e-015 7.15625e-015
rhumerus -30.5332 -8.09841 -85.4332
rradius 30.0035
rwrist 2.29384
rhand -18.6494 -4.68564
rfingers 7.12502
rthumb 7.64353 -34.5275
lclavicle -3.52843e-015 7.15625e-015
lhumerus -31.0932 15.3965 78.9504
lradius 15.2792
lwrist 0.67059
lhand -13.4339 16.3245
lfingers 7.12502
lthumb 12.6749 45.9199
rfemur -25.4699 3.08168 20.0468
rtibia 58.7225
rfoot -19.9254 -15.5383
rtoes -4.95948
lfemur -2.4985 15.291 -20.9568
ltibia 24.4289
lfoot -24.697 13.426
ltoes 1.16893
2
root 50.1091 15.9945 -3.31811 163.632 -84.8185 -162.856
lowerback 1.61407 -0.0359304 -0.46875
upperback 2.46927 -0.0740349 -0.66258
thorax 1.62409 -0.0523125 -0.416298
lowerneck -7.01799 -0.793113 2.25308
upperneck 0.926788 -1.44053 4.15994
head 1.49208 -0.644536 0.870979
rclavicle -1.57537e-014 -8.74653e-015
rhumerus -30.7378 -8.11433 -85.3816
rradius 29.9365
rwrist 2.40492
rhand -18.6099 -4.76675
rfingers 7.12502
rthumb 7.68167 -34.6072
lclavicle -1.57537e-014 -8.74653e-015
lhumerus -30.7813 15.692 78.7969
lradius 15.0456
lwrist 0.19007
lhand -13.3462 16.3678
lfingers 7.12502
lthumb 12.7595 45.9579
rfemur -26.6254 3.05504 19.9269
rtibia 60.2257
rfoot -18.9259 -16.1751
rtoes -3.24308
lfemur -2.36446 15.9439 -20.9927
ltibia 24.1981
lfoot -24.5911 12.8404
ltoes 1.17358
3
root 50.0944 15.9869 -3.30096 165.317 -84.7734 -164.511
lowerback 1.59027 -0.0455956 -0.594179
upperback 2.5041 -0.0872608 -0.738622
thorax 1.67328 -0.0609561 -0.424045
lowerneck -7.06391 -0.744868 2.32542
upperneck 0.867858 -1.38292 4.14873
head 1.4797 -0.617231 0.856915
rclavicle -3.32964e-015 1.19271e-015
rhumerus -30.7762 -8.12894 -85.4018
rradius 29.8682
rwrist 2.48176
rhand -18.5818 -4.78201
rfingers 7.12502
rthumb 7.70881 -34.6215
lclavicle -3.32964e-015 1.19271e-015
lhumerus -30.2879 15.5888 78.8578
lradius 14.9656
lwrist 0.0250033
lhand -13.3543 16.966
lfingers 7.12502
lthumb 12.7517 46.5566
rfemur -27.7462 3.01582 19.7765
rtibia 61.6001
rfoot -17.8101 -16.8865
rtoes -1.59085
lfemur -2.2353 16.6727 -21.1084
ltibia 23.8681
lfoot -24.0508 12.8374
ltoes -0.589487
4
root 50.0765 15.9903 -3.28554 166.015 -84.8353 -165.133
lowerback 1.61087 -0.105678 -0.659509
upperback 2.44357 -0.167138 -0.78243
thorax 1.5994 -0.101099 -0.432001
lowerneck -7.03051 -0.723769 2.32639
upperneck 0.944454 -1.35456 4.11893
head 1.49789 -0.601718 0.848543
rclavicle 2.78299e-015 -9.14409e-015
rhumerus -30.9182 -8.35522 -85.3191
rradius 29.6769
rwrist 2.71897
rhand -18.5827 -4.69105
rfingers 7.12502
rthumb 7.70794 -34.5306
lclavicle 2.78299e-015 -9.14409e-015
lhumerus -29.9881 15.4164 78.8997
lradius 15.0211
lwrist 0.105847
lhand -13.4752 16.8626
lfingers 7.12502
lthumb 12.6351 46.4604
rfemur -28.8297 2.87471 19.769
rtibia 62.8292
rfoot -17.643 -17.7674
rtoes -0.962296
lfemur -2.10014 16.8556 -21.2168
ltibia 23.5606
lfoot -23.9948 12.6245
ltoes -0.492131
5
root 50.0597 15.9888 -3.26997 166.799 -84.872 -165.87
lowerback 1.64143 -0.152315 -0.73451
upperback 2.41465 -0.229819 -0.82607
thorax 1.55256 -0.133156 -0.434359
lowerneck -7.00067 -0.687454 2.34474
upperneck 0.938817 -1.30565 4.1023
head 1.48995 -0.578027 0.841876
rclavicle -9.69075e-015 -1.23246e-014
rhumerus -31.0549 -8.49026 -85.2658
rradius 29.5586
rwrist 2.86346
rhand -18.574 -4.6562
rfingers 7.12502
rthumb 7.71637 -34.4954
lclavicle -9.69075e-015 -1.23246e-014
lhumerus -29.6296 15.2905 78.941
lradius 15.0388
lwrist 0.0566418
lhand -13.4978 16.9696
lfingers 7.12502
lthumb 12.6133 46.5687
rfemur -29.8635 2.76564 19.7401
rtibia 63.9709
rfoot -17.3485 -18.5028
rtoes 0.0422203
lfemur -1.93753 17.1632 -21.3109
ltibia 23.2263
lfoot -23.7823 12.5106
ltoes -1.00701
6
root 50.0413 15.9885 -3.25487 167.269 -84.9378 -166.302
lowerback 1.68564 -0.209756 -0.784025
upperback 2.38902 -0.307148 -0.861536
thorax 1.50139 -0.172176 -0.44243
lowerneck -6.97644 -0.645628 2.3404
upperneck 0.915526 -1.24776 4.10344
head 1.47763 -0.550047 0.844897
rclavicle 1.04362e-014 -1.51076e-014
rhumerus -31.2027 -8.6397 -85.2058
rradius 29.4449
rwrist 2.99253
rhand -18.581 -4.61988
rfingers 7.12502
rthumb 7.70955 -34.4593
lclavicle 1.04362e-014 -1.51076e-014
lhumerus -29.2767 15.0964 79.0164
lradius 15.1117
lwrist 0.0831793
lhand -13.5442 17.0167
lfingers 7.12502
lthumb 12.5686 46.6187
rfemur -30.8261 2.63513 19.7522
rtibia 64.9428
rfoot -17.3221 -19.2056
rtoes 0.863017
lfemur -1.76083 17.3153 -21.4035
ltibia 22.8979
lfoot -23.608 12.4947
ltoes -1.44618
7
root 50.0215 15.99 -3.24023 167.324 -85.0277 -166.329
lowerback 1.74831 -0.276788 -0.802436
upperback 2.36579 -0.397505 -0.88346
thorax 1.44222 -0.217293 -0.453757
lowerneck -6.9277 -0.596818 2.31773
upperneck 0.848725 -1.17662 4.11186
head 1.44706 -0.516776 0.85365
rclavicle -1.47101e-014 -3.97569e-016
rhumerus -31.3661 -8.79455 -85.1356
rradius 29.3383
rwrist 3.10304
rhand -18.6015 -4.59488
rfingers 7.12502
rthumb 7.68983 -34.4351
lclavicle -1.47101e-014 -3.97569e-016
lhumerus -28.9375 14.827 79.1325
lradius 15.252
lwrist 0.190123
lhand -13.6088 17.0196
lfingers 7.12502
lthumb 12.5063 46.6254
rfemur -31.7232 2.49298 19.8121
rtibia 65.7616
rfoot -17.5315 -19.8425
rtoes 1.53579
lfemur -1.56201 17.3071 -21.4814
ltibia 22.5719
lfoot -23.4931 12.5439
ltoes -1.69095
8
root 50.0004 15.9931 -3.2258 166.987 -85.136 -165.979
lowerback 1.82895 -0.34883 -0.788482
upperback 2.35173 -0.494714 -0.894837
thorax 1.3822 -0.265486 -0.472084
lowerneck -6.87954 -0.549637 2.2952
upperneck 0.753 -1.10636 4.11145
head 1.4072 -0.484855 0.85943
rclavicle 1.41634e-014 7.55382e-015
rhumerus -31.5384 -8.94956 -85.0607
rradius 29.2421
rwrist 3.18419
rhand -18.6382 -4.58877
rfingers 7.12502
rthumb 7.65437 -34.4302
lclavicle 1.41634e-014 7.55382e-015
lhumerus -28.5988 14.4637 79.3013
lradius 15.4551
lwrist 0.395045
lhand -13.7112 17.0484
lfingers 7.12502
lthumb 12.4075 46.6602
rfemur -32.5454 2.34502 19.9099
rtibia 66.4015
rfoot -17.8704 -20.3856
rtoes 2.08456
lfemur -1.32882 17.1656 -21.5452
ltibia 22.2283
lfoot -23.3908 12.683
ltoes -1.89064
9
root 49.9781 15.9978 -3.21148 166.23 -85.2515 -165.221
lowerback 1.92516 -0.423883 -0.73835
upperback 2.34602 -0.595895 -0.896157
thorax 1.32167 -0.315265 -0.500006
lowerneck -6.81821 -0.504318 2.27427
upperneck 0.62382 -1.03674 4.10312
head 1.35425 -0.454393 0.862269
rclavicle -8.49804e-015 1.03368e-014
rhumerus -31.7138 -9.11407 -84.9791
rradius 29.1401
rwrist 3.25502
rhand -18.6883 -4.59175
rfingers 7.12502
rthumb 7.60605 -34.435
lclavicle -8.49804e-015 1.03368e-014
lhumerus -28.266 13.9956 79.524
lradius 15.7241
lwrist 0.724324
lhand -13.8926 17.0737
lfingers 7.12502
lthumb 12.2327 46.696
rfemur -33.2978 2.19923 20.046
rtibia 66.8616
rfoot -18.2323 -20.8295
rtoes 2.50074
lfemur -1.0606 16.9164 -21.5871
ltibia 21.8689
lfoot -23.3181 12.8723
ltoes -1.96945
